<svg width="17" height="11" viewBox="0 0 17 11" fill="none" xmlns="http://www.w3.org/2000/svg">
<path d="M14.1712 1.73714C14.1712 0.90931 13.4209 0.231995 12.504 0.231995H10.0032V1.73714H12.504V3.73146L9.60304 7.00514H6.66878V3.24228H3.33439C1.49214 3.24228 0 4.58939 0 6.25257V8.51029H1.6672C1.6672 9.75956 2.78422 10.768 4.16799 10.768C5.55176 10.768 6.66878 9.75956 6.66878 8.51029H10.4033L14.1712 4.25826V1.73714ZM4.16799 9.26286C3.70951 9.26286 3.33439 8.9242 3.33439 8.51029H5.00159C5.00159 8.9242 4.62647 9.26286 4.16799 9.26286Z" fill="black"/>
<path d="M6.66873 0.984558H2.50073V2.48969H6.66873V0.984558Z" fill="black"/>
<path d="M14.1712 6.25256C12.7874 6.25256 11.6704 7.26101 11.6704 8.51027C11.6704 9.75953 12.7874 10.768 14.1712 10.768C15.555 10.768 16.672 9.75953 16.672 8.51027C16.672 7.26101 15.555 6.25256 14.1712 6.25256ZM14.1712 9.26284C13.7127 9.26284 13.3376 8.92418 13.3376 8.51027C13.3376 8.09636 13.7127 7.7577 14.1712 7.7577C14.6297 7.7577 15.0048 8.09636 15.0048 8.51027C15.0048 8.92418 14.6297 9.26284 14.1712 9.26284Z" fill="black"/>
</svg>
